<svg preserveAspectRatio="none" overflow="visible" style="display: block;" width="18.5" height="18.5" viewBox="0 0 18.5 18.5" fill="none" xmlns="http://www.w3.org/2000/svg">
<g id="bulb">
<path id="Part" opacity="0.32" d="M4.59023 12.2732C4.74015 12.4318 4.88992 12.5806 5.03631 12.7189C5.23232 12.904 5.33033 12.9966 5.48203 13.0855C5.6034 13.1566 5.77708 13.2256 5.91413 13.2573C6.08542 13.2969 6.2478 13.2969 6.57258 13.2969H11.9507C12.2726 13.2969 12.4335 13.2969 12.604 13.2577C12.74 13.2264 12.9138 13.1577 13.0344 13.0875C13.1856 12.9994 13.2824 12.9086 13.4761 12.727L13.4761 12.727C13.618 12.5938 13.7631 12.4509 13.9082 12.2984C14.9145 11.2418 15.9948 9.6595 15.9948 7.70833C15.9948 3.98329 12.975 0.963542 9.25 0.963542C5.52495 0.963542 2.50521 3.98329 2.50521 7.70833C2.50521 9.62942 3.58717 11.2118 4.59023 12.2732Z" fill="#F5C542"/>
<path id="Vector" d="M12.1406 14.4528V14.6462C12.1404 16.2425 10.8463 17.5368 9.25 17.5368C7.65366 17.5368 6.35955 16.2425 6.35938 14.6462V14.4528H12.1406ZM9.25 10.2135C9.56929 10.2135 9.82812 10.4724 9.82812 10.7917V13.1042C9.82812 13.4235 9.56929 13.6823 9.25 13.6823C8.93071 13.6823 8.67188 13.4235 8.67188 13.1042V10.7917C8.67188 10.4724 8.93071 10.2135 9.25 10.2135Z" fill="#F5C542"/>
</g>
</svg>
